<svg width="140" height="29" viewBox="0 0 140 29" fill="none" xmlns="http://www.w3.org/2000/svg">
<g clip-path="url(#clip0_16122_680)">
<path d="M139.752 21.6553V25.1198H136.846C133.745 25.0223 132.088 23.3477 132.088 20.2021V12.2894H130.059V9.25019H132.088V5.84766H136.376V9.21474H139.655V12.2451H136.376V19.7768C136.376 20.7958 136.58 21.6109 138.148 21.6109L139.752 21.6553Z" fill="white"/>
<path d="M112.965 17.2168V16.9864C112.919 15.9673 113.074 14.9491 113.422 13.99C113.77 13.031 114.303 12.1501 114.992 11.3977C115.681 10.6454 116.512 10.0364 117.437 9.60564C118.362 9.17492 119.362 8.93094 120.382 8.8877C120.585 8.8877 120.798 8.8877 121.002 8.8877C125.051 8.8877 128.604 11.2447 128.604 16.8624V18.0586H117.351C117.466 20.6459 118.866 22.1079 121.223 22.1079C123.252 22.1079 124.2 21.2219 124.475 19.9282H128.525C128.028 23.3042 125.335 25.1826 121.073 25.1826C116.394 25.1472 112.965 22.1877 112.965 17.2168ZM124.387 15.3472C124.236 12.9902 123.049 11.856 120.984 11.856C118.919 11.856 117.732 13.132 117.44 15.3472H124.387Z" fill="white"/>
<path d="M95.4573 17.2168V16.9864C95.4108 15.9687 95.5654 14.9519 95.9122 13.994C96.259 13.0361 96.7912 12.1559 97.4783 11.4038C98.1654 10.6516 98.994 10.0423 99.9168 9.61057C100.839 9.17885 101.838 8.93321 102.856 8.8877C103.06 8.8877 103.272 8.8877 103.476 8.8877C107.526 8.8877 111.088 11.2447 111.088 16.8624V18.0586H99.8433C99.9585 20.6459 101.359 22.1079 103.716 22.1079C105.745 22.1079 106.693 21.2219 106.967 19.9282H111.017C110.512 23.3042 107.818 25.1826 103.556 25.1826C98.8864 25.1472 95.4573 22.1877 95.4573 17.2168ZM106.879 15.3472C106.728 12.9902 105.541 11.856 103.476 11.856C101.412 11.856 100.26 13.1674 99.932 15.3383L106.879 15.3472Z" fill="white"/>
<path d="M70.8867 9.21484H75.4234L78.1968 19.7237L81.2361 9.21484H84.7804L87.5272 19.7237L90.4513 9.21484H94.607L89.6804 24.8275H85.4272L82.769 15.0275L79.9247 24.8275H75.6184L70.8867 9.21484Z" fill="white"/>
<path d="M56.4688 19.9187H60.5181C60.7042 21.3275 61.4042 22.1338 63.265 22.1338C64.9308 22.1338 65.7017 21.5047 65.7017 20.4326C65.7017 19.3604 64.8156 18.9085 62.5472 18.5895C58.3915 17.9604 56.7877 16.7642 56.7877 13.7161C56.7877 10.4642 59.765 8.85156 62.9903 8.85156C66.4548 8.85156 69.0688 10.1098 69.4409 13.6984H65.4447C65.4192 13.421 65.339 13.1513 65.2087 12.9051C65.0784 12.6589 64.9006 12.4409 64.6855 12.2637C64.4705 12.0866 64.2225 11.9538 63.9559 11.8731C63.6892 11.7923 63.4092 11.7652 63.132 11.7933H62.9991C61.5991 11.7933 60.7839 12.449 60.7839 13.406C60.7839 14.363 61.5371 14.7794 63.8232 15.1073C67.7042 15.6921 69.8751 16.6756 69.8751 20.0161C69.8751 23.3566 67.4206 25.1465 63.3093 25.1465C59.1979 25.1465 56.5839 23.2946 56.4688 19.9187Z" fill="white"/>
<path d="M39.2617 9.21563H43.5503V11.6878C44.0337 10.7804 44.7674 10.0308 45.6643 9.52821C46.5612 9.02558 47.5835 8.791 48.6098 8.85234C51.6491 8.85234 53.8554 10.7042 53.8554 14.9308V24.8637H49.6199V15.5511C49.6199 13.4334 48.7959 12.4232 46.882 12.4232C46.4774 12.388 46.0699 12.433 45.6829 12.5557C45.2958 12.6784 44.9368 12.8763 44.6264 13.1381C44.316 13.3999 44.0604 13.7205 43.8742 14.0813C43.688 14.4422 43.5749 14.8363 43.5415 15.2409C43.5193 15.4293 43.5193 15.6197 43.5415 15.808V24.8283H39.2617V9.21563Z" fill="white"/>
<path d="M30.9858 5.28939C30.9703 4.8618 31.0819 4.43921 31.3067 4.07513C31.5315 3.71105 31.8592 3.42184 32.2484 3.24413C32.6377 3.06642 33.0709 3.00819 33.4932 3.07682C33.9155 3.14545 34.308 3.33786 34.6209 3.62967C34.9338 3.92148 35.1531 4.29958 35.2511 4.7161C35.349 5.13262 35.3211 5.56883 35.171 5.9695C35.0208 6.37016 34.7552 6.71727 34.4076 6.96688C34.0601 7.21648 33.6463 7.35736 33.2187 7.37167H33.139C32.8736 7.38847 32.6074 7.3527 32.3559 7.26642C32.1043 7.18013 31.8723 7.04503 31.673 6.86885C31.4738 6.69268 31.3113 6.47891 31.1949 6.2398C31.0785 6.00069 31.0105 5.74094 30.9947 5.47547C30.9873 5.41373 30.9843 5.35155 30.9858 5.28939ZM30.9858 9.21471H35.3187V24.8274H31.0035L30.9858 9.21471Z" fill="white"/>
<path d="M14.6562 3.49121H28.355V7.27476H19.4942V12.9191H26.5119V16.5608H19.4854V24.8279H14.6562V3.49121Z" fill="white"/>
<path d="M6.38861 10.4734C6.38861 11.8114 6.38861 13.4418 4.54557 14.1063C6.43291 14.7532 6.38861 16.1266 6.38861 17.562V22.8785C6.38861 23.8886 6.7962 24.5 7.52279 24.6506C7.68244 24.7045 7.85064 24.7285 8.01899 24.7215H9.79114V28.2658H6.86709C3.7481 28.2658 2.02911 26.4937 2.02911 23.2063V16.9152C2.00699 16.5922 1.86458 16.2893 1.63 16.0662C1.39541 15.8431 1.08571 15.716 0.762025 15.7101H0V12.6H0.762025C1.09216 12.5956 1.40796 12.4644 1.64388 12.2334C1.87981 12.0024 2.01776 11.6895 2.02911 11.3595V4.97975C2.02911 1.74557 3.71266 0 6.86709 0H9.81772V3.49114H8.04557C7.87702 3.49163 7.70958 3.51854 7.54937 3.57089C6.82279 3.75696 6.41519 4.35949 6.41519 5.34304L6.38861 10.4734Z" fill="white"/>
</g>
<defs>
<clipPath id="clip0_16122_680">
<rect width="140" height="28.3544" fill="white"/>
</clipPath>
</defs>
</svg>
